<?xml version="1.0"?>
<svg xmlns="http://www.w3.org/2000/svg" xmlns:xlink="http://www.w3.org/1999/xlink" version="1.1" viewBox="0 0 192 192" width="48px" height="48px"><g fill="none" fill-rule="nonzero" stroke="none" stroke-width="1" stroke-linecap="butt" stroke-linejoin="miter" stroke-miterlimit="10" stroke-dasharray="" stroke-dashoffset="0" font-family="none" font-weight="none" font-size="none" text-anchor="none" style="mix-blend-mode: normal"><path d="M0,192v-192h192v192z" fill="none"/><path d="M0,192v-192h192v192zM138.24,138.24v-84.48h-84.48v84.48z" fill="#44b4fd"/><g id="Layer_1"><circle cx="30" cy="30" transform="scale(3.2,3.2)" r="20" fill="#29b6f6"/><path d="M127.84,67.2l-11.9872,61.2032c0,0 -0.5152,2.7968 -3.984,2.7968c-1.8432,0 -2.7936,-0.8768 -2.7936,-0.8768l-25.9648,-21.5456l-12.704,-6.4032l-16.304,-4.336c0,0 -2.9024,-0.8384 -2.9024,-3.2384c0,-2 2.9856,-2.9536 2.9856,-2.9536l68.2112,-27.0976c-0.0032,-0.0032 2.0832,-0.752 3.6032,-0.7488c0.9344,0 2,0.4 2,1.6c0,0.8 -0.16,1.6 -0.16,1.6z" fill="#ffffff"/><path d="M92.8,116.816l-10.9632,10.7968c0,0 -0.4768,0.368 -1.1136,0.384c-0.2208,0.0064 -0.4576,-0.0288 -0.7008,-0.1376l3.0848,-19.088z" fill="#b0bec5"/><path d="M114.8704,77.4272c-0.5408,-0.704 -1.5392,-0.832 -2.2432,-0.2976l-42.2272,25.2704c0,0 6.7392,18.8544 7.7664,22.1184c1.0304,3.2672 1.856,3.344 1.856,3.344l3.0848,-19.088l31.4624,-29.1072c0.704,-0.5344 0.8352,-1.536 0.3008,-2.24z" fill="#cfd8dc"/></g><path d="M0,192v-192h192v192z" fill="none"/><path d="M3.84,188.16v-184.32h184.32v184.32z" fill="none"/><path d="M0,192v-192h192v192z" fill="none"/><path d="M7.68,184.32v-176.64h176.64v176.64z" fill="none"/><path d="M0,192v-192h192v192z" fill="none"/><path d="M11.52,180.48v-168.96h168.96v168.96z" fill="none"/><path d="M0,192v-192h192v192z" fill="none"/><path d="M15.36,176.64v-161.28h161.28v161.28z" fill="none"/><path d="M0,192v-192h192v192z" fill="none"/><path d="M19.2,172.8v-153.6h153.6v153.6z" fill="none"/><path d="M0,192v-192h192v192z" fill="none"/><path d="M23.04,168.96v-145.92h145.92v145.92z" fill="none"/><path d="M0,192v-192h192v192z" fill="none"/><path d="M26.88,165.12v-138.24h138.24v138.24z" fill="none"/><path d="M0,192v-192h192v192z" fill="none"/><path d="M30.72,161.28v-130.56h130.56v130.56z" fill="none"/><path d="M0,192v-192h192v192z" fill="none"/><path d="M34.56,157.44v-122.88h122.88v122.88z" fill="none"/><path d="M0,192v-192h192v192z" fill="none"/><path d="M38.4,153.6v-115.2h115.2v115.2z" fill="none"/><path d="M0,192v-192h192v192z" fill="none"/><path d="M0,192v-192h192v192z" fill="none"/><path d="M0,192v-192h192v192z" fill="none"/><path d="M38.4,153.6v-115.2h115.2v115.2z" fill="none"/><path d="M0,192v-192h192v192z" fill="none"/><path d="M46.08,145.92v-99.84h99.84v99.84z" fill="none"/><path d="M0,192v-192h192v192z" fill="none"/><path d="M3.84,188.16v-184.32h184.32v184.32z" fill="none"/><path d="M0,192v-192h192v192z" fill="none"/><path d="M42.24,149.76v-107.52h107.52v107.52z" fill="none"/><path d="M0,192v-192h192v192z" fill="none"/><path d="M3.84,188.16v-184.32h184.32v184.32z" fill="none"/><path d="M0,192v-192h192v192z" fill="none"/><path d="M46.08,145.92v-99.84h99.84v99.84z" fill="none"/><path d="M0,192v-192h192v192z" fill="none"/><path d="M3.84,188.16v-184.32h184.32v184.32z" fill="none"/><path d="M0,192v-192h192v192z" fill="none"/><path d="M49.92,142.08v-92.16h92.16v92.16z" fill="none"/><path d="M0,192v-192h192v192z" fill="none"/><path d="M3.84,188.16v-184.32h184.32v184.32z" fill="none"/><path d="M0,192v-192h192v192z" fill="none"/><path d="M53.76,138.24v-84.48h84.48v84.48z" fill="none"/><path d="M0,192v-192h192v192z" fill="none"/><path d="M53.76,138.24v-84.48h84.48v84.48z" fill="none"/><path d="M0,192v-192h192v192z" fill="none"/><path d="M53.76,138.24v-84.48h84.48v84.48z" fill="none"/><path d="M0,192v-192h192v192z" fill="none"/><path d="M53.76,138.24v-84.48h84.48v84.48z" fill="none"/><path d="M0,192v-192h192v192z" fill="none"/><path d="M53.76,138.24v-84.48h84.48v84.48z" fill="none"/><path d="M0,192v-192h192v192z" fill="none"/><path d="M53.76,138.24v-84.48h84.48v84.48z" fill="none"/><path d="M0,192v-192h192v192z" fill="none"/><path d="M53.76,138.24v-84.48h84.48v84.48z" fill="none"/><path d="M0,192v-192h192v192z" fill="none"/><path d="M53.76,138.24v-84.48h84.48v84.48z" fill="none"/><path d="M0,192v-192h192v192z" fill="none"/><path d="M53.76,138.24v-84.48h84.48v84.48z" fill="none"/><path d="M0,192v-192h192v192z" fill="none"/><path d="M53.76,138.24v-84.48h84.48v84.48z" fill="none"/><path d="M0,192v-192h192v192z" fill="none"/><path d="M53.76,138.24v-84.48h84.48v84.48z" fill="none"/><path d="M0,192v-192h192v192z" fill="none"/><path d="M53.76,138.24v-84.48h84.48v84.48z" fill="none"/><path d="M0,192v-192h192v192z" fill="none"/><path d="M53.76,138.24v-84.48h84.48v84.48z" fill="none"/><path d="M0,192v-192h192v192z" fill="none"/><path d="M53.76,138.24v-84.48h84.48v84.48z" fill="none"/><path d="M0,192v-192h192v192z" fill="none"/><path d="M53.76,138.24v-84.48h84.48v84.48z" fill="none"/><path d="M0,192v-192h192v192z" fill="none"/><path d="M53.76,138.24v-84.48h84.48v84.48z" fill="none"/><path d="M0,192v-192h192v192z" fill="none"/><path d="M53.76,138.24v-84.48h84.48v84.48z" fill="none"/><path d="M0,192v-192h192v192z" fill="none"/><path d="M53.76,138.24v-84.48h84.48v84.48z" fill="none"/><path d="M0,192v-192h192v192z" fill="none"/><path d="M53.76,138.24v-84.48h84.48v84.48z" fill="none"/><path d="M0,192v-192h192v192z" fill="none"/><path d="M53.76,138.24v-84.48h84.48v84.48z" fill="none"/><path d="M0,192v-192h192v192z" fill="none"/><path d="M53.76,138.24v-84.48h84.48v84.48z" fill="none"/><path d="M0,192v-192h192v192z" fill="none"/><path d="M53.76,138.24v-84.48h84.48v84.48z" fill="none"/><path d="M0,192v-192h192v192z" fill="none"/><path d="M53.76,138.24v-84.48h84.48v84.48z" fill="none"/><path d="M0,192v-192h192v192z" fill="none"/><path d="M53.76,138.24v-84.48h84.48v84.48z" fill="none"/><path d="M0,192v-192h192v192z" fill="none"/><path d="M53.76,138.24v-84.48h84.48v84.48z" fill="none"/><path d="M0,192v-192h192v192z" fill="none"/><path d="M53.76,138.24v-84.48h84.48v84.48z" fill="none"/><path d="M0,192v-192h192v192z" fill="none"/><path d="M53.76,138.24v-84.48h84.48v84.48z" fill="none"/><path d="M0,192v-192h192v192z" fill="none"/><path d="M53.76,138.24v-84.48h84.48v84.48z" fill="none"/><path d="M0,192v-192h192v192z" fill="none"/><path d="M53.76,138.24v-84.48h84.48v84.48z" fill="none"/><path d="M0,192v-192h192v192z" fill="none"/><path d="M53.76,138.24v-84.48h84.48v84.48z" fill="none"/><path d="M0,192v-192h192v192z" fill="none"/><path d="M53.76,138.24v-84.48h84.48v84.48z" fill="none"/><path d="M0,192v-192h192v192z" fill="none"/><path d="M53.76,138.24v-84.48h84.48v84.48z" fill="none"/><path d="M0,192v-192h192v192z" fill="none"/><path d="M53.76,138.24v-84.48h84.48v84.48z" fill="none"/><path d="M0,192v-192h192v192z" fill="none"/><path d="M53.76,138.24v-84.48h84.48v84.48z" fill="none"/><path d="M0,192v-192h192v192z" fill="none"/><path d="M53.76,138.24v-84.48h84.48v84.48z" fill="none"/><path d="M0,192v-192h192v192z" fill="none"/><path d="M53.76,138.24v-84.48h84.48v84.48z" fill="none"/><path d="M0,192v-192h192v192z" fill="none"/><path d="M53.76,138.24v-84.48h84.48v84.48z" fill="none"/><path d="M0,192v-192h192v192z" fill="none"/><path d="M53.76,138.24v-84.48h84.48v84.48z" fill="none"/><path d="M0,192v-192h192v192z" fill="none"/><path d="M53.76,138.24v-84.48h84.48v84.48z" fill="none"/><path d="M0,192v-192h192v192z" fill="none"/><path d="M53.76,138.24v-84.48h84.48v84.48z" fill="none"/><path d="M0,192v-192h192v192z" fill="none"/><path d="M53.76,138.24v-84.48h84.48v84.48z" fill="none"/><path d="M0,192v-192h192v192z" fill="none"/><path d="M53.76,138.24v-84.48h84.48v84.48z" fill="none"/><path d="M0,192v-192h192v192z" fill="none"/><path d="M53.76,138.24v-84.48h84.48v84.48z" fill="none"/><path d="M0,192v-192h192v192z" fill="none"/><path d="M53.76,138.24v-84.48h84.48v84.48z" fill="none"/><path d="M0,192v-192h192v192z" fill="none"/><path d="M53.76,138.24v-84.48h84.48v84.48z" fill="none"/><path d="M0,192v-192h192v192z" fill="none"/><path d="M53.76,138.24v-84.48h84.48v84.48z" fill="none"/><path d="M0,192v-192h192v192z" fill="none"/><path d="M53.76,138.24v-84.48h84.48v84.48z" fill="none"/><path d="M0,192v-192h192v192z" fill="none"/><path d="M53.76,138.24v-84.48h84.48v84.48z" fill="none"/><path d="M0,192v-192h192v192z" fill="none"/><path d="M53.76,138.24v-84.48h84.48v84.48z" fill="none"/><path d="M0,192v-192h192v192z" fill="none"/><path d="M53.76,138.24v-84.48h84.48v84.48z" fill="none"/><path d="M0,192v-192h192v192z" fill="none"/><path d="M53.76,138.24v-84.48h84.48v84.48z" fill="none"/><path d="M0,192v-192h192v192z" fill="none"/><path d="M53.76,138.24v-84.48h84.48v84.48z" fill="none"/><path d="M0,192v-192h192v192z" fill="none"/><path d="M53.76,138.24v-84.48h84.48v84.48z" fill="none"/><path d="M0,192v-192h192v192z" fill="none"/><path d="M53.76,138.24v-84.48h84.48v84.48z" fill="none"/><path d="M0,192v-192h192v192z" fill="none"/><path d="M53.76,138.24v-84.48h84.48v84.48z" fill="none"/><path d="M0,192v-192h192v192z" fill="none"/><path d="M53.76,138.24v-84.48h84.48v84.48z" fill="none"/><path d="M0,192v-192h192v192z" fill="none"/><path d="M53.76,138.24v-84.48h84.48v84.48z" fill="none"/><path d="M0,192v-192h192v192z" fill="none"/><path d="M53.76,138.24v-84.48h84.48v84.48z" fill="none"/><path d="M0,192v-192h192v192z" fill="none"/><path d="M53.76,138.24v-84.48h84.48v84.48z" fill="none"/><path d="M0,192v-192h192v192z" fill="none"/><path d="M53.76,138.24v-84.48h84.48v84.48z" fill="none"/><path d="M0,192v-192h192v192z" fill="none"/><path d="M53.76,138.24v-84.48h84.48v84.48z" fill="none"/><path d="M0,192v-192h192v192z" fill="none"/><path d="M53.76,138.24v-84.48h84.48v84.48z" fill="none"/><path d="M0,192v-192h192v192z" fill="none"/><path d="M53.76,138.24v-84.48h84.48v84.48z" fill="none"/><path d="M0,192v-192h192v192z" fill="none"/><path d="M53.76,138.24v-84.48h84.48v84.48z" fill="none"/><path d="M0,192v-192h192v192z" fill="none"/><path d="M53.76,138.24v-84.48h84.48v84.48z" fill="none"/><path d="M0,192v-192h192v192z" fill="none"/><path d="M53.76,138.24v-84.48h84.48v84.48z" fill="none"/><path d="M0,192v-192h192v192z" fill="none"/><path d="M53.76,138.24v-84.48h84.48v84.48z" fill="none"/><path d="M0,192v-192h192v192z" fill="none"/><path d="M53.76,138.24v-84.48h84.48v84.48z" fill="none"/><path d="M0,192v-192h192v192z" fill="none"/><path d="M53.76,138.24v-84.48h84.48v84.48z" fill="none"/><path d="M0,192v-192h192v192z" fill="none"/><path d="M53.76,138.24v-84.48h84.48v84.48z" fill="none"/></g></svg>
