<svg width="30" height="24" viewBox="0 0 30 24" fill="none" xmlns="http://www.w3.org/2000/svg">
<g clip-path="url(#clip0)">
<path d="M2.87949 7.27181C3.25885 7.53991 4.40259 8.3355 6.31071 9.65857C8.22011 10.9829 9.68226 12.0021 10.6971 12.7163C10.8086 12.7944 11.0458 12.9647 11.4086 13.2273C11.7718 13.4902 12.0732 13.7024 12.3127 13.8637C12.5524 14.0265 12.8423 14.2072 13.1834 14.409C13.4874 14.5931 13.8099 14.7445 14.1456 14.8609C14.415 14.9556 14.6979 15.0065 14.9834 15.0115H15.0165C15.3021 15.0065 15.585 14.9556 15.8544 14.8609C16.1899 14.744 16.5123 14.5925 16.8165 14.409C17.1566 14.2072 17.4466 14.0265 17.6872 13.8637C17.9271 13.7021 18.2282 13.4899 18.5903 13.2273C18.9535 12.9651 19.1909 12.7947 19.3026 12.7163C20.3289 12.0011 22.9405 10.186 27.1374 7.27078C27.9385 6.71508 28.6306 6.0166 29.1791 5.21023C29.7053 4.4712 29.9918 3.58821 30 2.6808C30.0045 2.32736 29.9362 1.97677 29.7993 1.65094C29.6624 1.3251 29.4598 1.03102 29.2043 0.787069C28.9602 0.53486 28.6673 0.335012 28.3435 0.199695C28.0198 0.064378 27.6719 -0.00357807 27.3211 -3.54673e-05H2.67889C2.30289 -0.0214636 1.92714 0.0462972 1.58226 0.197728C1.23738 0.349159 0.933107 0.579977 0.694237 0.871383C0.217281 1.49476 -0.0281623 2.26477 -2.04353e-05 3.04942C-2.04353e-05 3.75323 0.306997 4.51575 0.921033 5.33695C1.46172 6.08649 2.12364 6.74043 2.87949 7.27181Z" fill="#0A89FF"/>
<path d="M28.3253 9.06446C24.6652 11.5435 21.8864 13.4701 19.9888 14.8441C19.3528 15.314 18.8365 15.6798 18.4397 15.9415C17.9391 16.2587 17.4097 16.528 16.8586 16.7458C16.2776 17.003 15.6516 17.1426 15.0165 17.1566H14.9833C14.3482 17.1427 13.7222 17.0031 13.1412 16.7458C12.5899 16.5278 12.0602 16.2585 11.5591 15.9415C11.1638 15.6795 10.6478 15.3137 10.011 14.8441C8.50386 13.7385 5.73034 11.812 1.69048 9.06446C1.06793 8.65155 0.499922 8.16167 -9.18687e-05 7.60645V20.9091C-0.00523184 21.2618 0.0619028 21.6118 0.197169 21.9375C0.332435 22.2632 0.532962 22.5577 0.786374 22.8028C1.03136 23.0564 1.32568 23.2571 1.65116 23.3925C1.97664 23.5278 2.32639 23.595 2.67882 23.5899H27.321C28.0309 23.5881 28.7112 23.3051 29.2132 22.8028C29.7152 22.3004 29.9981 21.6196 29.9999 20.9091V7.60645C29.502 8.15782 28.9398 8.64733 28.3253 9.06446Z" fill="#0A89FF"/>
</g>
<defs>
<clipPath id="clip0">
<rect width="30" height="23.5897" fill="white"/>
</clipPath>
</defs>
</svg>
