<svg width="30" height="41" viewBox="0 0 30 41" fill="none" xmlns="http://www.w3.org/2000/svg">
<g clip-path="url(#clip0)">
<path d="M14.9999 6.20312C13.2504 6.20314 11.5402 6.72612 10.0855 7.70591C8.63087 8.6857 7.4971 10.0783 6.82761 11.7076C6.15811 13.3369 5.98295 15.1298 6.32429 16.8594C6.66562 18.5891 7.50812 20.1779 8.74523 21.4249C9.98234 22.6719 11.5585 23.5211 13.2744 23.8651C14.9903 24.2092 16.7689 24.0326 18.3853 23.3577C20.0016 22.6828 21.3831 21.5399 22.3551 20.0735C23.327 18.6072 23.8458 16.8832 23.8458 15.1197C23.843 12.7557 22.9101 10.4894 21.2518 8.81781C19.5934 7.14624 17.3451 6.20593 14.9999 6.20312ZM14.9999 21.6381C13.721 21.638 12.4708 21.2557 11.4074 20.5395C10.344 19.8233 9.51523 18.8052 9.02581 17.6142C8.53639 16.4231 8.40834 15.1125 8.65786 13.8481C8.90737 12.5837 9.52324 11.4223 10.4276 10.5107C11.3319 9.59907 12.4841 8.97826 13.7385 8.72675C14.9928 8.47524 16.293 8.60431 17.4746 9.09766C18.6562 9.591 19.6661 10.4264 20.3767 11.4984C21.0872 12.5703 21.4665 13.8305 21.4665 15.1197C21.4647 16.8479 20.7828 18.5048 19.5705 19.7269C18.3582 20.9489 16.7144 21.6362 14.9999 21.6381Z" fill="#0A89FF"/>
<path d="M14.9999 0C11.0231 0.00454296 7.2104 1.59901 4.39835 4.43361C1.5863 7.2682 0.00450683 11.1114 0 15.1202C0 19.9287 4.0004 27.0926 6.38505 30.9344C7.8302 33.2869 9.41547 35.5489 11.1322 37.7081C13.5277 40.6615 14.3851 40.9091 14.9999 40.9091C15.6251 40.9091 16.4344 40.6615 18.8223 37.7065C20.5356 35.5452 22.1217 33.2845 23.5723 30.936C25.9724 27.0849 30 19.9083 30 15.1202C29.9955 11.1114 28.4137 7.26815 25.6016 4.43355C22.7895 1.59895 18.9768 0.00450116 14.9999 0V0ZM21.9225 29.0685C18.8454 34.1027 16.0216 37.5042 14.986 38.3724C13.9451 37.5308 11.1669 34.2104 8.04719 29.0849C4.44493 23.1663 2.3793 18.076 2.3793 15.1202C2.3793 11.7461 3.70898 8.51024 6.07582 6.12443C8.44266 3.73861 11.6528 2.39828 15 2.39828C18.3472 2.39828 21.5573 3.73861 23.9242 6.12443C26.291 8.51024 27.6207 11.7461 27.6207 15.1202C27.6207 18.0596 25.5442 23.1437 21.9225 29.0685Z" fill="#0A89FF"/>
</g>
<defs>
<clipPath id="clip0">
<rect width="30" height="40.9091" fill="white"/>
</clipPath>
</defs>
</svg>
