<svg width="30" height="30" viewBox="0 0 30 30" fill="none" xmlns="http://www.w3.org/2000/svg">
<g clip-path="url(#clip0)">
<path d="M6.00033 12.9996C8.45723 17.7065 12.2975 21.5475 17.0039 24.0053L20.6753 20.3423C20.8679 20.0992 21.1405 19.9324 21.4445 19.8713C21.7486 19.8103 22.0644 19.859 22.3359 20.0089C24.2648 20.6885 26.298 21.0242 28.343 21.0007C28.565 20.9882 28.7871 21.0229 28.9947 21.1025C29.2022 21.1821 29.3906 21.3048 29.5473 21.4625C29.704 21.6202 29.8255 21.8093 29.9038 22.0174C29.9821 22.2255 30.0154 22.4478 30.0016 22.6697V28.3434C30.0144 28.5645 29.9802 28.7859 29.9014 28.9929C29.8226 29.1999 29.7008 29.3879 29.5442 29.5446C29.3876 29.7012 29.1996 29.8229 28.9925 29.9018C28.7855 29.9806 28.5642 30.0147 28.343 30.0019C24.6208 30.0064 20.9342 29.2767 17.4944 27.8546C14.0545 26.4326 10.9289 24.346 8.29637 21.7145C5.66388 19.083 3.57622 15.9581 2.15289 12.5188C0.729557 9.07944 -0.00149389 5.39315 0.00158007 1.67093C-0.0120025 1.44822 0.0218613 1.22516 0.100931 1.01651C0.180001 0.807866 0.302474 0.618388 0.460248 0.460614C0.618022 0.30284 0.8075 0.180367 1.01615 0.101297C1.22479 0.0222275 1.44785 -0.0116363 1.67056 0.00194628H7.50679C7.72877 -0.0105621 7.95087 0.0241236 8.15847 0.103716C8.36606 0.183309 8.55443 0.306001 8.71115 0.463703C8.86786 0.621405 8.98937 0.810536 9.06767 1.01862C9.14596 1.22671 9.17925 1.44903 9.16535 1.67093C9.17283 3.71155 9.5113 5.73745 10.1676 7.66968C10.2353 7.95514 10.2406 8.25186 10.183 8.53955C10.1255 8.82724 10.0065 9.09911 9.8342 9.33658L6.00033 12.9996Z" fill="#0A89FF"/>
</g>
<defs>
<clipPath id="clip0">
<rect width="30" height="30" fill="white"/>
</clipPath>
</defs>
</svg>
