<svg width="22" height="22" viewBox="0 0 22 22" fill="none" xmlns="http://www.w3.org/2000/svg">
<path d="M20.877 11.0096C20.877 16.5523 16.3629 21.0495 10.7896 21.0495C5.21635 21.0495 0.702179 16.5523 0.702179 11.0096C0.702179 5.46676 5.21635 0.969604 10.7896 0.969604C16.3629 0.969604 20.877 5.46676 20.877 11.0096Z" stroke="#0779FF"/>
<path d="M12.4012 17.1014C12.4158 17.4094 12.5845 17.6001 12.9072 17.6734L13.2812 17.7394C13.6038 17.8128 13.7652 17.9888 13.7652 18.2674C13.7652 18.5461 13.5818 18.6854 13.2152 18.6854H9.16716C8.8005 18.6854 8.61716 18.5461 8.61716 18.2674C8.61716 18.0034 8.78583 17.8348 9.12316 17.7614L9.56316 17.6734C9.88583 17.6001 10.0545 17.4094 10.0692 17.1014V13.2074C10.0692 12.9141 10.0692 12.6501 10.0692 12.4154C10.0692 12.1808 10.0618 11.9608 10.0472 11.7554C10.0325 11.6381 10.0252 11.5208 10.0252 11.4034C10.0252 11.2861 10.0252 11.1688 10.0252 11.0514C9.99583 10.7141 9.81983 10.5234 9.49716 10.4794L8.96916 10.4134C8.63183 10.3694 8.46316 10.2154 8.46316 9.95142C8.46316 9.71676 8.60983 9.54076 8.90316 9.42342L11.7632 8.38942C11.8365 8.36009 11.9025 8.33809 11.9612 8.32342C12.0198 8.30876 12.0785 8.30142 12.1372 8.30142C12.2105 8.30142 12.2692 8.32342 12.3132 8.36742C12.4158 8.45542 12.4672 8.63142 12.4672 8.89542L12.4012 11.4034V17.1014ZM11.2132 6.23342C10.7438 6.23342 10.3552 6.09409 10.0472 5.81542C9.75383 5.53676 9.60716 5.17009 9.60716 4.71542C9.60716 4.26076 9.75383 3.89409 10.0472 3.61542C10.3552 3.33676 10.7438 3.19742 11.2132 3.19742C11.6678 3.19742 12.0418 3.33676 12.3352 3.61542C12.6432 3.89409 12.7972 4.26076 12.7972 4.71542C12.7972 5.17009 12.6432 5.53676 12.3352 5.81542C12.0418 6.09409 11.6678 6.23342 11.2132 6.23342Z" fill="#066EEE"/>
</svg>
